<svg width="1126" height="1126" viewBox="0 0 1126 1126" fill="none" xmlns="http://www.w3.org/2000/svg">
<g clip-path="url(#clip0_11_2)">
<rect width="1126" height="1126" fill="#1F334C"/>
<path d="M0 0H1126V1126H0V0Z" fill="#1F334C" stroke="#42444D" stroke-width="42"/>
<mask id="mask0_11_2" style="mask-type:luminance" maskUnits="userSpaceOnUse" x="227" y="239" width="672" height="649">
<path d="M899 239H227V888H899V239Z" fill="white"/>
</mask>
<g mask="url(#mask0_11_2)">
<path d="M312.896 335.337C332.386 308.812 344.598 295.507 360.45 275.591C353.536 300.553 356.706 317.712 377.879 347.571C399.052 377.43 467.768 410.171 498.872 417.799C529.976 425.428 532.794 422.658 549.934 423.53C528.149 459.116 489.145 476.11 455.99 499.968C422.835 523.826 392.921 551.488 367.323 586.414C341.726 621.34 321.485 662.542 307.92 706.715C294.355 750.887 297.584 840.624 297.791 865.206L285.984 841.147C274.178 817.087 257.289 786.968 246.216 744.206C235.143 701.444 227 650.414 227 599.359C227 545.892 240.763 484.289 256.715 442.329C272.667 400.37 293.406 361.861 312.896 335.337Z" fill="#4398FD" stroke="#4398FD"/>
<path d="M477.093 319.466C467.75 311.521 496.286 291.682 516.042 277.118C528.763 267.74 556.408 262.374 579.471 255.959C592.223 252.412 603.051 245.67 610.419 244.558L647.03 239.034C647.03 239.034 636.261 244.325 627.431 262.354C618.389 280.815 617.927 303.73 617.927 303.73C622.723 286.012 643.065 288.958 654.53 294.507C666.165 300.137 663.06 298.927 677.726 309.745C657.705 305.693 641.092 315.347 630.176 323.076C657.591 319.892 671.612 336.143 675.759 351.343C658.171 345.295 646.163 345.754 633.012 351.718L655.672 352.998C654.886 383.862 587.526 431.83 598.213 419.943C658.58 411.678 736.142 381.397 758.976 344.132C781.81 306.866 778.904 293.027 772.414 271.344C811.818 310.009 832.432 338.698 862.743 409.126C893.055 479.554 908.221 621.147 892.952 698.683C877.682 776.22 865.674 815.425 834.209 866.122C834.834 817.843 836.752 779.855 821.168 722.437C805.584 665.018 763.503 588.304 717.858 541.473C672.213 494.641 624.532 464.59 569.103 441.765C583.479 455.772 572.787 456.433 552.435 477.863C532.084 499.292 498.047 556.132 513.947 604.146C529.848 652.16 603.895 664.757 640.837 655.642C677.779 646.527 694.176 614.52 655.083 609.578C615.991 604.637 576.601 608.852 544.286 630.522C517.963 612.407 524.131 594.88 560.2 584.503C596.269 574.126 654.648 563.627 689.068 585.249C723.489 606.87 726.497 638.665 697.104 664.785C667.712 690.904 617.829 700.781 574.207 693.861C530.585 686.941 479.07 668.22 458.246 624.319C437.422 580.418 466.091 536.656 499.101 499.408C532.112 462.16 576.073 421.889 590.532 384.912C604.991 347.936 606.955 318.898 590.884 300.452L600.409 291.205C593.266 291.359 589.139 295.334 590.235 294.499C578.585 304.783 565.77 320.011 547.284 310.347C528.798 300.683 504.977 303.035 477.093 319.466Z" fill="#4398FD" stroke="#4398FD"/>
<path d="M462.197 656.14C436.265 685.043 412.692 724.949 413.817 762.346C414.941 799.743 449.926 815.728 481.683 804.391C513.441 793.054 556.488 765.22 547.715 726.579C539.197 689.059 480.359 711.915 467.869 741.294C455.38 770.672 481.877 778.793 492.495 752.744C488.398 732.826 525.989 720.477 512.73 745.038C499.471 769.598 451.021 796.067 447.729 760.623C444.437 725.178 474.826 703.932 493.185 678.953C485.232 671.73 472.959 655.208 462.197 656.14Z" fill="#4398FD" stroke="#4398FD"/>
<path d="M478.661 811.825C508.026 788.221 507.696 813.778 533.767 842.61C559.837 871.441 637.449 885.945 691.114 862.361C636.676 899.709 536.174 878.264 506.724 849.289C477.274 820.315 483.116 826.182 478.661 811.825Z" fill="#4398FD" stroke="#4398FD"/>
</g>
</g>
<defs>
<clipPath id="clip0_11_2">
<rect width="1126" height="1126" fill="white"/>
</clipPath>
</defs>
</svg>

